<svg width="12" height="12" xmlns="http://www.w3.org/2000/svg">
  <path d="M11.328.66C10.888.22 10.358 0 9.74 0H2.248C1.628 0 1.099.22.659.66.22 1.1 0 1.628 0 2.247V9.74c0 .619.22 1.148.66 1.588.44.44.969.66 1.588.66H9.74c.619 0 1.148-.22 1.588-.66.44-.44.66-.97.66-1.588V2.248c0-.62-.22-1.149-.66-1.589zM9.989 6.242a.467.467 0 0 1-.304.46.543.543 0 0 1-.195.04.464.464 0 0 1-.351-.148L8.015 5.47 3.848 9.638a.48.48 0 0 1-.351.149.48.48 0 0 1-.352-.149l-.796-.796a.48.48 0 0 1-.148-.351.48.48 0 0 1 .148-.351l4.168-4.168-1.124-1.124c-.161-.15-.198-.332-.11-.546a.467.467 0 0 1 .461-.304H9.49a.48.48 0 0 1 .351.148.48.48 0 0 1 .149.351v3.746z" fill="#DCDCDC"/>
</svg>
