<svg width="32" height="36" xmlns="http://www.w3.org/2000/svg"><defs><linearGradient x1="181.769%" y1="170.177%" x2="-8.665%" y2="33.164%" id="a"><stop stop-color="#8A82D6" offset="0%"/><stop stop-color="#8189E0" offset="100%"/></linearGradient></defs><g fill="none" fill-rule="evenodd"><path d="M31.61 4.01a.25.25 0 0 0-.191-.224L15.899.006a.26.26 0 0 0-.12 0L.26 3.787a.252.252 0 0 0-.191.224c-.021.26-1.904 25.97 15.69 31.958a.252.252 0 0 0 .162 0C33.514 29.98 31.631 4.27 31.61 4.01" fill="#f1f2fa"/><path d="M23.253 15.404c0-2.204-1.74-3.99-3.888-3.99-1.403 0-2.627.764-3.312 1.906-.684-1.142-1.91-1.907-3.311-1.907-2.148 0-3.889 1.787-3.889 3.99 0 1.2.518 2.274 1.335 3.005l5.51 5.655a.496.496 0 0 0 .71 0l5.51-5.655a4.02 4.02 0 0 0 1.335-3.004z" fill="url(#a)"/></g></svg>
