<svg xmlns="http://www.w3.org/2000/svg" xmlns:xlink="http://www.w3.org/1999/xlink" viewBox="0 0 127 111">
  <defs>
    <path id="a" d="M27.186 14.008l-14.7 3.57a.24.24 0 0 0-.18.213c-.019.245-1.802 24.54 14.859 30.198.05.016.104.016.154 0C43.98 42.33 42.198 18.036 42.178 17.79a.236.236 0 0 0-.181-.212l-14.699-3.571a.218.218 0 0 0-.112 0"/>
  </defs>
  <g fill="none" fill-rule="evenodd">
    <g transform="translate(0 17)">
      <path fill="#7A90E5" fill-rule="nonzero" d="M67.98 67.348c-.49.694-1.255 1.237-2.298 1.626-1.042.39-2.209.585-3.5.585-1.306 0-2.467-.314-3.483-.94-1.016-.626-1.802-1.512-2.36-2.658-.557-1.146-.84-2.46-.848-3.941v-2.108c0-2.314.585-4.142 1.753-5.482 1.169-1.34 2.738-2.011 4.71-2.011 1.718 0 3.1.437 4.146 1.312 1.047.874 1.67 2.08 1.868 3.615h-1.41c-.205-1.223-.704-2.149-1.494-2.779-.79-.63-1.824-.945-3.1-.945-1.558 0-2.791.554-3.7 1.661-.909 1.108-1.363 2.67-1.363 4.686v1.97c0 1.269.215 2.39.647 3.363.431.974 1.05 1.728 1.856 2.263.806.535 1.732.802 2.778.802 1.215 0 2.257-.19 3.128-.573.565-.252.985-.546 1.26-.882v-4.308h-4.48v-1.191h5.89V67.348zm11.651.412c-.825 1.199-2.142 1.799-3.953 1.799-1.32 0-2.325-.384-3.013-1.152-.687-.767-1.038-1.904-1.054-3.408v-8.066h1.364v7.895c0 2.36.954 3.54 2.864 3.54 1.986 0 3.242-.821 3.77-2.463v-8.97h1.374v12.393h-1.329l-.023-1.57v.002zm12.74 1.57c-.137-.39-.225-.967-.263-1.73a4.781 4.781 0 0 1-1.84 1.449c-.744.34-1.532.51-2.365.51-1.192 0-2.156-.333-2.893-.997-.737-.665-1.105-1.505-1.105-2.52 0-1.207.502-2.162 1.506-2.865 1.005-.703 2.404-1.054 4.2-1.054h2.485v-1.41c0-.885-.273-1.582-.819-2.09-.546-.508-1.342-.762-2.389-.762-.954 0-1.745.244-2.371.733-.627.49-.94 1.077-.94 1.765l-1.375-.012c0-.985.459-1.839 1.375-2.56.917-.722 2.043-1.083 3.38-1.083 1.383 0 2.473.346 3.271 1.037s1.209 1.655 1.232 2.893V66.5c0 1.199.126 2.096.378 2.692v.137H92.37l.001.001zm-4.308-.986c.917 0 1.736-.221 2.458-.664a3.91 3.91 0 0 0 1.575-1.776v-2.727h-2.452c-1.367.015-2.436.266-3.207.75-.772.486-1.158 1.152-1.158 2 0 .695.258 1.271.774 1.73.515.458 1.186.687 2.01.687zm14.78-10.242a5.12 5.12 0 0 0-.928-.08c-.856 0-1.58.238-2.171.716-.592.477-1.014 1.17-1.266 2.079v8.512h-1.364V56.933h1.34l.024 1.97c.725-1.466 1.89-2.2 3.494-2.2.382 0 .684.05.905.15l-.034 1.249zm1.189 4.915c0-1.925.43-3.458 1.289-4.6.859-1.142 2.026-1.713 3.5-1.713 1.672 0 2.948.66 3.826 1.982v-6.954h1.364v17.596h-1.283l-.058-1.65c-.878 1.253-2.169 1.88-3.872 1.88-1.428 0-2.58-.575-3.454-1.725-.875-1.15-1.312-2.702-1.312-4.657v-.16.001zm1.386.24c0 1.581.317 2.828.951 3.741.634.913 1.528 1.37 2.68 1.37 1.689 0 2.888-.746 3.598-2.235v-5.82c-.71-1.612-1.901-2.418-3.574-2.418-1.154 0-2.051.453-2.693 1.358-.641.905-.962 2.24-.962 4.004zm20.027 6.072c-.138-.39-.226-.966-.264-1.73a4.781 4.781 0 0 1-1.839 1.45c-.744.34-1.533.51-2.365.51-1.192 0-2.156-.333-2.893-.997-.737-.665-1.106-1.505-1.106-2.52 0-1.207.502-2.162 1.507-2.865 1.004-.703 2.404-1.054 4.199-1.054h2.486v-1.41c0-.885-.273-1.582-.82-2.09-.545-.508-1.342-.762-2.388-.762-.955 0-1.745.244-2.372.733-.626.49-.94 1.077-.94 1.765l-1.374-.012c0-.985.458-1.839 1.375-2.56.916-.722 2.043-1.083 3.38-1.083 1.382 0 2.472.346 3.27 1.037.799.691 1.21 1.655 1.232 2.893V66.5c0 1.199.126 2.096.378 2.692v.137h-1.466zm-4.308-.985c.917 0 1.736-.221 2.457-.664a3.91 3.91 0 0 0 1.576-1.776v-2.727h-2.452c-1.367.015-2.436.266-3.208.75-.771.486-1.157 1.152-1.157 2 0 .695.258 1.271.773 1.73.516.458 1.186.687 2.011.687zM59.02 88.361l.516 2.59.63-2.475 3.62-12.294h1.272l3.574 12.294.62 2.497.55-2.612 3.012-12.179h1.444l-4.274 16.682h-1.352l-3.78-13.05-.424-1.65-.413 1.65-3.872 13.05H58.79l-4.262-16.682h1.444l3.047 12.18.001-.001zm24.713 4.503c-.137-.39-.225-.967-.263-1.73a4.781 4.781 0 0 1-1.84 1.449c-.744.34-1.532.51-2.365.51-1.191 0-2.156-.332-2.893-.997-.737-.664-1.105-1.505-1.105-2.52 0-1.207.502-2.162 1.506-2.865 1.005-.702 2.404-1.054 4.2-1.054h2.485v-1.409c0-.886-.273-1.583-.819-2.09-.546-.509-1.342-.763-2.389-.763-.954 0-1.745.245-2.371.734-.627.488-.94 1.076-.94 1.764l-1.375-.012c0-.985.459-1.838 1.375-2.56.917-.722 2.043-1.083 3.38-1.083 1.383 0 2.473.346 3.271 1.037s1.209 1.655 1.232 2.893v5.866c0 1.199.126 2.096.378 2.692v.138h-1.467zm-4.308-.986c.917 0 1.736-.221 2.458-.664a3.91 3.91 0 0 0 1.575-1.776v-2.727h-2.451c-1.368.016-2.437.266-3.208.75-.772.486-1.158 1.152-1.158 2 0 .695.258 1.272.774 1.73.515.458 1.186.687 2.01.687zm10.587.986h-1.375V75.266h1.375v17.598zm5.258 0h-1.374V75.266h1.374v17.598zm8.524.229c-1.054 0-2.006-.26-2.858-.78-.852-.519-1.514-1.242-1.988-2.17-.473-.928-.71-1.969-.71-3.122v-.493c0-1.192.23-2.265.693-3.22.462-.954 1.105-1.705 1.93-2.25a4.762 4.762 0 0 1 2.681-.82c1.505 0 2.698.514 3.58 1.541.883 1.027 1.324 2.43 1.324 4.21v.768H99.6v.264c0 1.405.403 2.576 1.209 3.511.806.936 1.82 1.404 3.042 1.404.733 0 1.38-.134 1.942-.401.561-.268 1.07-.695 1.53-1.284l.858.654c-1.008 1.458-2.47 2.188-4.388 2.188h.001zm-.252-11.686c-1.03 0-1.9.378-2.606 1.134-.707.756-1.136 1.772-1.289 3.047h7.436v-.148c-.039-1.192-.379-2.162-1.02-2.91-.642-.749-1.482-1.123-2.52-1.123h-.001zm9.704-4.113v3.173h2.567v1.123h-2.567v8.26c0 .688.124 1.2.373 1.536.248.336.662.504 1.243.504.229 0 .6-.038 1.111-.115l.057 1.123c-.359.13-.847.195-1.466.195-.94 0-1.623-.273-2.05-.82-.429-.545-.642-1.35-.642-2.411V81.59h-2.28v-1.123h2.28v-3.173h1.374z"/>
      <path fill="#798CE5" d="M54.879 6.964a.435.435 0 0 0-.332-.39L27.602.015a.452.452 0 0 0-.207 0L.449 6.574a.438.438 0 0 0-.331.39c-.036.45-3.305 45.087 27.239 55.483a.438.438 0 0 0 .283 0C58.185 52.051 54.916 7.414 54.879 6.964"/>
      <path fill="#FFF" d="M49.902 11.684a.356.356 0 0 0-.271-.316L27.583 6.01a.35.35 0 0 0-.17 0L5.367 11.368a.353.353 0 0 0-.27.316c-.03.367-2.705 36.809 22.29 45.295a.321.321 0 0 0 .228 0c24.994-8.486 22.32-44.928 22.29-45.295"/>
      <use fill="#798CE5" xlink:href="#a"/>
    </g>
  </g>
</svg>
