<svg height="496pt" viewBox="0 0 496 496" width="496pt" xmlns="http://www.w3.org/2000/svg" xmlns:xlink="http://www.w3.org/1999/xlink"><linearGradient id="a" gradientUnits="userSpaceOnUse" x1="248" x2="248" y1="496" y2="0"><stop offset="0" stop-color="#9f2fff"/><stop offset="1" stop-color="#0bb1d3"/></linearGradient><path d="m248 480c52.9375 0 96-43.0625 96-96s-43.0625-96-96-96c-44.664062 0-83.03125 30.359375-93.320312 73.839844l-1.457032 6.160156h-121.222656v-16h75.054688l-16-32h-27.054688v-16h36.945312l24 48h15.808594c9.453125-31.929688 32.175782-57.078125 61.253906-70.136719-74.808593-20.277343-130.007812-88.726562-130.007812-169.863281h16c0 88.222656 71.777344 160 160 160 61.761719 0 112 50.238281 112 112s-50.238281 112-112 112c-49.976562 0-93.207031-32.585938-107.246094-80h-15.808594l-24 48h-36.945312v-16h27.054688l16-32h-75.054688v-16h121.222656l1.457032 6.160156c10.289062 43.480469 48.65625 73.839844 93.320312 73.839844zm-232-128h-16v16h16zm0 48h-16v16h16zm16 64h16v-16h-16zm0-144h16v-16h-16zm208-8v16h8v-16h16v17.136719c13.761719 3.574219 24 16 24 30.863281 0 9.542969-4.199219 18.136719-10.855469 24 6.65625 5.863281 10.855469 14.457031 10.855469 24 0 14.863281-10.238281 27.289062-24 30.863281v17.136719h-16v-16h-8v16h-16v-16h-16v-112h16v-16zm32 96c0-8.824219-7.175781-16-16-16h-32v32h32c8.824219 0 16-7.175781 16-16zm-16-64h-32v32h32c8.824219 0 16-7.175781 16-16s-7.175781-16-16-16zm99.246094-264c-14.039063-47.414062-57.269532-80-107.246094-80-61.761719 0-112 50.238281-112 112s50.238281 112 112 112c88.222656 0 160 71.777344 160 160h16c0-81.136719-55.199219-149.585938-130.007812-169.863281 29.070312-13.058594 51.800781-38.207031 61.253906-70.136719h15.808594l24 48h36.945312v-16h-27.054688l-16-32h75.054688v-16h-121.222656l-1.457032 6.160156c-10.289062 43.480469-48.664062 73.839844-93.320312 73.839844-52.9375 0-96-43.0625-96-96s43.0625-96 96-96c44.664062 0 83.03125 30.359375 93.320312 73.839844l1.457032 6.160156h121.222656v-16h-75.054688l16-32h27.054688v-16h-36.945312l-24 48zm124.753906 16h16v-16h-16zm0 48h16v-16h-16zm-16 32h-16v16h16zm-16-128h16v-16h-16zm-216 24h32c8.824219 0 16 7.175781 16 16h16c0-17.648438-14.351562-32-32-32h-8v-16h-16v16h-8c-17.648438 0-32 14.351562-32 32s14.351562 32 32 32h32c8.824219 0 16 7.175781 16 16s-7.175781 16-16 16h-32c-8.824219 0-16-7.175781-16-16h-16c0 17.648438 14.351562 32 32 32h8v16h16v-16h8c17.648438 0 32-14.351562 32-32s-14.351562-32-32-32h-32c-8.824219 0-16-7.175781-16-16s7.175781-16 16-16zm248 424h16v-16h-16zm-32 0h16v-16h-16zm32-32h16v-16h-16zm0-32h16v-16h-16zm-32 32h16v-16h-16zm-32 32h16v-16h-16zm-400-496h-16v16h16zm0 32h-16v16h16zm32-32h-16v16h16zm16 16h16v-16h-16zm-32 32h16v-16h-16zm-16 16h-16v16h16zm88 48c0 79.398438 64.601562 144 144 144 70.574219 0 128 57.425781 128 128h16c0-79.398438-64.601562-144-144-144-70.574219 0-128-57.425781-128-128zm288 288h-16v16h16zm16 16h16v-16h-16zm-336-320h16v-16h-16zm32 0h16v-16h-16zm0 0" fill="url(#a)"/></svg>