<svg width="128" height="19" xmlns="http://www.w3.org/2000/svg"><g fill="#50E3C2" fill-rule="nonzero"><path d="M19.911 7.414h-7.618L9.956.46 7.618 7.414H0l6.231 4.28-2.427 6.955 6.152-4.31 6.15 4.31-2.43-6.955zM46.933 7.414h-7.617L36.978.46 34.64 7.414h-7.618l6.231 4.28-2.426 6.955 6.15-4.31 6.152 4.31-2.431-6.955zM73.956 7.414h-7.618L64 .46l-2.338 6.955h-7.618l6.232 4.28-2.427 6.955L64 14.34l6.151 4.31-2.431-6.955zM100.978 7.414H93.36L91.022.46l-2.338 6.955h-7.617l6.23 4.28-2.426 6.955 6.151-4.31 6.151 4.31-2.43-6.955zM128 7.414h-7.618L118.044.46l-2.337 6.955h-7.618l6.231 4.28-2.427 6.955 6.151-4.31 6.152 4.31-2.432-6.955z"/></g></svg>
