<svg viewBox="0 0 127 25" xmlns="http://www.w3.org/2000/svg">
  <g fill="none" fill-rule="evenodd">
    <path d="M46.183 5.328h-5.32V20H37.92V5.328h-5.273v-2.39h13.535v2.39zm6.88 4.594a7.047 7.047 0 0 0-1.16-.094c-1.305 0-2.184.5-2.637 1.5V20h-2.848V7.32h2.719l.07 1.418c.688-1.101 1.64-1.652 2.86-1.652.406 0 .742.055 1.007.164l-.011 2.672zm8.52 8.836c-.836.984-2.023 1.476-3.562 1.476-1.375 0-2.416-.402-3.123-1.207-.707-.804-1.061-1.968-1.061-3.492V7.32h2.848v8.18c0 1.61.668 2.414 2.004 2.414 1.382 0 2.316-.496 2.8-1.488V7.32h2.848V20h-2.684l-.07-1.242zm11.802-2.203c0-.508-.21-.895-.627-1.16-.418-.266-1.111-.5-2.08-.704-.969-.203-1.778-.46-2.426-.773-1.422-.688-2.133-1.684-2.133-2.988 0-1.094.461-2.008 1.383-2.742.922-.735 2.094-1.102 3.516-1.102 1.515 0 2.74.375 3.673 1.125.934.75 1.4 1.723 1.4 2.918h-2.847c0-.547-.203-1.002-.61-1.365-.405-.364-.944-.545-1.616-.545-.625 0-1.135.144-1.53.433-.394.29-.591.676-.591 1.16 0 .438.183.778.55 1.02.368.242 1.11.486 2.227.732 1.117.247 1.994.54 2.63.88.637.34 1.11.747 1.419 1.224.308.477.463 1.055.463 1.734 0 1.141-.473 2.065-1.418 2.772-.946.707-2.184 1.06-3.715 1.06-1.04 0-1.965-.187-2.778-.562-.812-.375-1.445-.89-1.898-1.547-.453-.656-.68-1.363-.68-2.121h2.766c.039.672.293 1.19.762 1.553.468.363 1.09.545 1.863.545.75 0 1.32-.143 1.71-.428.392-.285.587-.658.587-1.12zm7.887-12.317V7.32h2.239v2.11h-2.239v7.078c0 .484.096.834.288 1.049.191.214.533.322 1.025.322.328 0 .66-.04.996-.117v2.203c-.648.18-1.273.27-1.875.27-2.187 0-3.281-1.208-3.281-3.622V9.43h-2.086V7.32h2.086V4.238h2.847zm14.556 9.551c0 1.961-.445 3.525-1.336 4.693-.89 1.168-2.086 1.752-3.586 1.752-1.39 0-2.504-.457-3.34-1.37v6.011H84.72V7.32h2.625l.117 1.29c.836-1.016 1.973-1.524 3.41-1.524 1.547 0 2.76.576 3.639 1.728.879 1.153 1.318 2.752 1.318 4.8v.175zm-2.836-.246c0-1.266-.252-2.27-.756-3.012s-1.224-1.113-2.162-1.113c-1.164 0-2 .48-2.508 1.441v5.625c.516.985 1.36 1.477 2.532 1.477.906 0 1.615-.365 2.127-1.096.511-.73.767-1.838.767-3.322zM100.306 20h-2.848V7.32h2.848V20zM97.282 4.027c0-.437.139-.8.416-1.09.278-.289.674-.433 1.19-.433.515 0 .914.144 1.195.433.281.29.422.653.422 1.09 0 .43-.14.787-.422 1.073-.281.285-.68.427-1.195.427-.516 0-.912-.142-1.19-.427-.277-.286-.416-.643-.416-1.073zM105.475 20h-2.848V2h2.848v18zm1.606-6.457c0-1.242.246-2.361.738-3.357.492-.997 1.184-1.762 2.074-2.297.891-.535 1.914-.803 3.07-.803 1.712 0 3.1.55 4.167 1.652 1.066 1.102 1.642 2.563 1.728 4.383l.012.668c0 1.25-.24 2.367-.72 3.352-.481.984-1.169 1.746-2.063 2.285-.895.539-1.928.808-3.1.808-1.789 0-3.22-.595-4.295-1.787-1.074-1.191-1.611-2.779-1.611-4.763v-.141zm2.848.246c0 1.305.27 2.326.808 3.065.54.738 1.29 1.107 2.25 1.107.961 0 1.71-.375 2.244-1.125.535-.75.803-1.848.803-3.293 0-1.281-.275-2.297-.826-3.047-.55-.75-1.299-1.125-2.244-1.125-.93 0-1.668.37-2.215 1.108-.547.738-.82 1.841-.82 3.31zm13.958-9.55V7.32h2.238v2.11h-2.238v7.078c0 .484.095.834.287 1.049.191.214.533.322 1.025.322.328 0 .66-.04.996-.117v2.203c-.648.18-1.273.27-1.875.27-2.187 0-3.281-1.208-3.281-3.622V9.43h-2.086V7.32h2.086V4.238h2.848z" fill="#424242"/>
    <path d="M11.374 19.997C7.538 13.563 0 9.965 0 9.965v8.23c6.274.31 10.135 4.415 10.135 4.415l2.726-.008s4.215-11.41 9.71-12.899V0c-9.506 5.818-11.197 19.997-11.197 19.997z" fill="#50E3C2"/>
  </g>
</svg>
