<svg viewBox="0 0 226 153" xmlns="http://www.w3.org/2000/svg" xmlns:xlink="http://www.w3.org/1999/xlink"><linearGradient id="a" x1="50%" x2="50%" y1="0%" y2="100%"><stop offset="0" stop-color="#9e6aae"/><stop offset="1" stop-color="#7797f4"/></linearGradient><g fill="none" fill-rule="evenodd"><path d="m-14-8h253.5v169h-253.5z"/><path d="m191.533 158.203-1.88 1.878v-1.878zm.47 1.878h-101.99c-7.192 0-13.023-5.824-13.023-13.008v-75.717l1.88.145v75.572c0 6.147 4.989 11.13 11.144 11.13h99.639zm-.47-1.878-1.88 1.878v-1.878zm-61.228-96.236c-3.32 7.992-11.21 13.614-20.413 13.614-9.548 0-17.68-6.05-20.766-14.52-5.251.483-10.188 4.787-10.188 9.426 0 5.23 4.248 9.47 9.489 9.47 3.555 0 33.276-.046 89.158-.14v-17.85zm.682-1.878h48.478v19.725l12.002-.02v.471h.066v79.816h-101.52c-7.192 0-13.023-5.824-13.023-13.008l1.757-70.633a11.286 11.286 0 0 1 -1.687-5.953c0-5.578 5.496-10.511 11.489-11.254a22.068 22.068 0 0 1 -.749-5.716c0-12.186 9.891-22.064 22.092-22.064 12.2 0 22.091 9.878 22.091 22.064 0 2.289-.349 4.496-.996 6.572zm58.666 75.362h-22.305c-7.318 0-13.25-5.945-13.25-13.278s5.932-13.278 13.25-13.278h22.305v-27.218c-63.682.107-97.422.16-101.226.16a11.361 11.361 0 0 1 -9.557-5.203v70.439c0 6.147 4.989 11.13 11.144 11.13h99.639v-22.753zm0-1.88v-22.796h-22.305c-6.28 0-11.372 5.103-11.372 11.398s5.091 11.398 11.372 11.398zm-21.477-6.352a4.697 4.697 0 0 1 -4.7-4.694 4.697 4.697 0 0 1 4.7-4.694c2.596 0 4.7 2.101 4.7 4.694a4.697 4.697 0 0 1 -4.7 4.694zm-8.46-74.172c-12.202 0-22.092-9.878-22.092-22.064 0-12.185 9.89-22.064 22.091-22.064 12.2 0 22.092 9.879 22.092 22.064 0 12.186-9.891 22.064-22.092 22.064zm0-1.878c11.162 0 20.21-9.037 20.21-20.186 0-11.148-9.048-20.186-20.21-20.186-11.163 0-20.212 9.038-20.212 20.186 0 11.149 9.049 20.186 20.211 20.186zm-49.824 22.534c11.162 0 20.211-9.038 20.211-20.186 0-11.149-9.049-20.186-20.211-20.186-11.163 0-20.211 9.037-20.211 20.186 0 11.148 9.048 20.186 20.21 20.186zm-5.461-11.316-1.592.013-2.258.02.39-2.222c.011-.059.18-1.126.474-3.005l.249-1.587h1.817v-5.114c-.347 0-.583 0-.707.002l-1.9.027-.007-1.897v-2.8l-.006-1.863 1.864-.022 2.31-.027c0-.486-.002-.887-.003-1.35l-.005-1.859 1.86-.024.448-.007a106.65 106.65 0 0 1 .84-.008c.279-.001.431-.003.576-.005l1.865-.022.508-.005 1.55-.016 1.895-.02.005 1.893.003 1.563c.271.049.493.097.733.16.84.22 1.558.523 2.206.976.965.675 1.628 1.597 1.928 2.715.19.706.246 1.43.165 2.152a4.956 4.956 0 0 1 -.472 1.645 4.656 4.656 0 0 1 1.456 2.184c.218.681.284 1.364.256 2.153a6.865 6.865 0 0 1 -.408 2.13 5.39 5.39 0 0 1 -1.822 2.462 6.648 6.648 0 0 1 -1.666.91c-.722.277-1.47.46-2.323.585l.002.95.001.485c0 .077-.006.22-.004.175l-.057 1.776-1.778.041-.173.005a17.66 17.66 0 0 1 -.33.007l-.578.004c-.46.003-.661.005-.912.008-.072.001-.138 0-.213-.007l-1.53.022-.492.007a98.492 98.492 0 0 1 -.807.008c-.337.002-.486.004-.666.007a1.976 1.976 0 0 1 -.419-.033 1.893 1.893 0 0 1 -.953-.472 1.895 1.895 0 0 1 -.572-.978 1.936 1.936 0 0 1 -.053-.466l-.003-1.282zm2.565-1.9.001.515c.004.886.008 1.773.009 2.66 0 .062.014.074.08.073.357-.007.715-.007 1.072-.01.299-.003.598-.008.903-.013l-.008-3.205a16.882 16.882 0 0 1 1.666.05c.003 1.023.006 2.045.006 3.068 0 .067.023.073.084.073.498-.006.997-.009 1.495-.013.158-.002.316-.007.476-.01l.003-.112c-.002-1.017-.003-2.034-.01-3.05 0-.068.02-.083.083-.088.324-.027.647-.05.97-.086.848-.095 1.684-.247 2.482-.553a4.808 4.808 0 0 0 1.202-.651c.565-.43.96-.973 1.195-1.614.184-.5.276-1.02.295-1.55.019-.514-.01-1.023-.168-1.516a2.782 2.782 0 0 0 -1.062-1.462c-.396-.282-.841-.468-1.311-.608-.146-.044-.296-.075-.465-.117.048-.028.076-.043.103-.06.144-.088.292-.17.43-.264.762-.518 1.146-1.238 1.244-2.1a3.881 3.881 0 0 0 -.113-1.454c-.185-.69-.586-1.241-1.19-1.664-.484-.339-1.033-.548-1.606-.698-.399-.104-.81-.169-1.22-.233-.298-.048-.602-.066-.91-.098l-.008-3.203-2.058.021.007 3.123-1.662.042c-.002-.035-.005-.06-.005-.086-.004-.997-.007-1.993-.008-2.99 0-.058-.01-.07-.074-.07-.36.008-.72.007-1.08.01l-.902.012.009 3.211-4.173.05c.002.696-.003 2.115 0 2.8.298-.004 1.17-.004 2.613 0v8.867h-2.089a884.772 884.772 0 0 1 -.478 3.039l4.172-.035zm2.08-12.541c.35-.01.698-.029 1.046-.028.429.002.86.002 1.286.038.333.028.667.087.989.172.453.12.868.315 1.173.676.212.252.315.542.35.86.026.224.018.449-.045.665a1.553 1.553 0 0 1 -.621.85c-.43.301-.923.447-1.436.548-.56.11-1.127.142-1.695.154-.324.007-.647.002-.971.006-.067 0-.072-.03-.072-.08l-.005-3.067v-.794zm-.037 5.851c.204-.008.403-.019.602-.023.413-.007.825-.02 1.237-.014.341.005.681.033 1.021.054a5.76 5.76 0 0 1 1.33.244c.48.147.924.36 1.242.752.231.284.34.61.36.966.036.614-.2 1.115-.721 1.49-.356.256-.764.41-1.19.525-.664.179-1.344.253-2.029.278-.585.021-1.17.02-1.756.03-.024 0-.047 0-.087.002l-.01-4.304zm50.406-32.941-.85.08c-1.66.157-2.95.699-3.907 1.617-.929.892-1.387 2.011-1.387 3.416 0 .864.133 1.577.388 2.143.26.576.632 1.082 1.124 1.525.522.47 1.151.887 1.89 1.252.792.392 1.659.78 2.6 1.163 1.084.443 1.872.932 2.368 1.504.543.627.802 1.452.802 2.438 0 .925-.273 1.706-.836 2.29-.569.591-1.34.883-2.249.883-1.174 0-2.142-.401-2.825-1.206-.492-.58-.79-1.324-.907-2.219h-3.086c.145 1.361.62 2.462 1.416 3.327.976 1.06 2.403 1.697 4.325 1.9l.84.089v2.875h.46v-2.868l.849-.082c1.627-.157 2.87-.687 3.77-1.583.881-.876 1.32-2.002 1.32-3.436 0-.858-.14-1.57-.41-2.142a4.866 4.866 0 0 0 -1.162-1.555 8.93 8.93 0 0 0 -1.896-1.281 37.562 37.562 0 0 0 -2.517-1.176c-1.017-.432-1.78-.901-2.293-1.432-.59-.612-.88-1.423-.88-2.38 0-.928.249-1.71.77-2.302.546-.621 1.307-.93 2.212-.93 1.022 0 1.867.416 2.44 1.217.376.528.607 1.182.706 1.959h3.095c-.14-1.22-.561-2.234-1.262-3.063-.87-1.03-2.071-1.658-3.646-1.89l-.802-.118v-3.032h-.46zm-6.792 19.485c-1.31-1.422-1.96-3.285-1.96-5.538v-.939h6.83v.94c0 .911.186 1.549.52 1.942.307.361.745.543 1.393.543.424 0 .702-.105.897-.308.202-.209.31-.52.31-.987 0-.563-.122-.953-.343-1.208-.269-.31-.823-.654-1.66-.995a41.95 41.95 0 0 1 -2.72-1.218 10.16 10.16 0 0 1 -2.315-1.54 6.424 6.424 0 0 1 -1.58-2.15c-.373-.826-.554-1.799-.554-2.914 0-1.907.66-3.517 1.965-4.77 1.098-1.055 2.499-1.727 4.18-2.019v-3.219h4.215v3.323c1.643.385 2.987 1.18 4.003 2.382 1.175 1.388 1.758 3.14 1.758 5.215v.938h-6.846v-.938c0-.84-.149-1.437-.413-1.807-.211-.296-.483-.43-.911-.43-.39 0-.632.099-.802.292-.194.22-.303.56-.303 1.063 0 .494.122.834.354 1.075.31.321.871.665 1.676 1.008.933.395 1.813.807 2.643 1.234.878.453 1.643.97 2.293 1.556a6.744 6.744 0 0 1 1.602 2.149c.397.839.59 1.822.59 2.943 0 1.919-.625 3.527-1.871 4.767-1.052 1.046-2.416 1.713-4.067 2.006v3.074h-4.215v-3.092c-1.955-.342-3.521-1.132-4.669-2.378z" fill="url(#a)" fill-rule="nonzero" transform="translate(-14 -8)"/><g fill="#fff"><path d="m17.218 123.444c0-14.738-2.867-17.604-17.604-17.604 14.737 0 17.604-2.865 17.604-17.604 0 14.739 2.865 17.604 17.604 17.604-14.739 0-17.604 2.866-17.604 17.604zm189.89-9.858c0-10.612-2.064-12.675-12.675-12.675 10.611 0 12.675-2.063 12.675-12.675 0 10.612 2.063 12.675 12.675 12.675-10.612 0-12.675 2.063-12.675 12.675zm-110.084-98.114c0-6.092-1.185-7.276-7.277-7.276 6.092 0 7.277-1.185 7.277-7.277 0 6.092 1.184 7.277 7.276 7.277-6.092 0-7.276 1.184-7.276 7.276z"/><path d="m34.822 60.07a5.633 5.633 0 1 1 0-11.267 5.633 5.633 0 0 1 0 11.266zm.235-1.409a3.99 3.99 0 1 0 0-7.98 3.99 3.99 0 0 0 0 7.98zm154.917-26.289a4.46 4.46 0 1 1 0-8.92 4.46 4.46 0 0 1 0 8.92zm0-1.408a3.051 3.051 0 1 0 0-6.103 3.051 3.051 0 0 0 0 6.103zm30.279 39.433a5.164 5.164 0 1 1 0-10.328 5.164 5.164 0 0 1 0 10.328zm0-2.347a2.817 2.817 0 1 0 0-5.633 2.817 2.817 0 0 0 0 5.633z" fill-rule="nonzero"/></g></g></svg>