<?xml version="1.0" encoding="iso-8859-1"?>
<!-- Generator: Adobe Illustrator 19.0.0, SVG Export Plug-In . SVG Version: 6.00 Build 0)  -->
<svg version="1.1" id="Layer_1" xmlns="http://www.w3.org/2000/svg" xmlns:xlink="http://www.w3.org/1999/xlink" x="0px" y="0px"
	 viewBox="0 0 512 512" style="enable-background:new 0 0 512 512;" xml:space="preserve">
<path style="fill:#1E0478;" d="M463.334,79.956v138.02c0,63.87-19.021,125.363-54.989,177.858
	c-35.117,51.236-83.987,90.654-141.33,113.999C263.459,511.278,259.73,512,256,512s-7.459-0.723-11.014-2.168
	c-57.343-23.345-106.213-62.763-141.33-113.999c-35.968-52.495-54.989-113.987-54.989-177.858V79.956
	c0-12.821,8.601-24.313,20.898-27.949L236.221,2.869c12.937-3.823,26.62-3.823,39.558-0.012l166.657,49.15
	C454.732,55.643,463.334,67.135,463.334,79.956z M440.023,217.976V79.956c0-2.564-1.725-4.86-4.184-5.583l-166.657-49.15
	c-4.312-1.27-8.741-1.911-13.182-1.911s-8.87,0.641-13.194,1.911L76.161,74.373c-2.459,0.723-4.184,3.019-4.184,5.583v138.02
	c0,59.138,17.611,116.085,50.91,164.676c32.53,47.471,77.786,83.975,130.887,105.584c1.434,0.583,3.019,0.583,4.452,0
	c53.101-21.609,98.358-58.113,130.887-105.584C422.412,334.061,440.023,277.114,440.023,217.976z"/>
<path style="fill:#FFFFFF;" d="M440.023,79.956v138.02c0,59.138-17.611,116.085-50.91,164.676
	c-32.53,47.471-77.786,83.975-130.887,105.584c-1.434,0.583-3.019,0.583-4.452,0c-53.101-21.609-98.358-58.113-130.887-105.584
	c-33.299-48.59-50.91-105.537-50.91-164.676V79.956c0-2.564,1.725-4.86,4.184-5.583l166.645-49.15
	c4.324-1.27,8.753-1.911,13.194-1.911c4.441,0,8.87,0.641,13.182,1.911l166.657,49.15C438.298,75.096,440.023,77.392,440.023,79.956
	z M397.692,217.976v-97.647c0-7.704-5.163-14.592-12.541-16.772L260.942,66.925c-3.228-0.956-6.655-0.956-9.884,0l-124.209,36.632
	c-7.378,2.18-12.541,9.068-12.541,16.772v97.647c0,51.586,15.618,101.085,45.14,143.114c22.891,32.588,53.474,59.499,88.451,77.821
	c2.541,1.329,5.315,1.993,8.1,1.993c2.774,0,5.56-0.664,8.1-1.993c34.977-18.322,65.56-45.234,88.451-77.821
	C382.074,319.061,397.692,269.562,397.692,217.976z"/>
<path style="fill:#1E0478;" d="M397.692,120.329v97.647c0,51.586-15.618,101.085-45.14,143.114
	c-22.891,32.588-53.474,59.499-88.451,77.821c-2.541,1.329-5.326,1.993-8.1,1.993c-2.786,0-5.56-0.664-8.1-1.993
	c-34.977-18.322-65.56-45.234-88.451-77.821c-29.522-42.028-45.14-91.528-45.14-143.114v-97.647c0-7.704,5.163-14.592,12.541-16.772
	l124.209-36.632c3.228-0.956,6.655-0.956,9.884,0l124.209,36.632C392.529,105.737,397.692,112.625,397.692,120.329z
	 M374.381,217.976v-93.299L256,89.769l-118.381,34.907v93.299c0,46.772,14.149,91.633,40.898,129.71
	c20.175,28.718,46.912,52.565,77.483,69.127c30.571-16.562,57.308-40.408,77.483-69.127
	C360.232,309.609,374.381,264.748,374.381,217.976z"/>
<path style="fill:#94E7EF;" d="M374.381,124.677v93.299c0,46.772-14.149,91.633-40.898,129.71
	c-20.175,28.718-46.912,52.565-77.483,69.127c-30.571-16.562-57.308-40.408-77.483-69.127
	c-26.749-38.077-40.898-82.938-40.898-129.71v-93.299L256,89.769L374.381,124.677z"/>
<g>
</g>
<g>
</g>
<g>
</g>
<g>
</g>
<g>
</g>
<g>
</g>
<g>
</g>
<g>
</g>
<g>
</g>
<g>
</g>
<g>
</g>
<g>
</g>
<g>
</g>
<g>
</g>
<g>
</g>
</svg>
