<svg viewBox="0 0 208 123" xmlns="http://www.w3.org/2000/svg" xmlns:xlink="http://www.w3.org/1999/xlink"><linearGradient id="a" x1="79.95%" x2="50%" y1="17.892%" y2="116.55%"><stop offset="0" stop-color="#9e6aae"/><stop offset="1" stop-color="#7797f4"/></linearGradient><g fill="none" fill-rule="evenodd"><path d="m-23-23h253.5v169h-253.5z"/><path d="m30.71 71.469 11.853 19.794-11.888 17.737-11.815-17.739 11.85-19.791zm-9.51 18.909 9.332 4.72 9.568-4.73-9.447-15.777zm0 1.414 9.425 14.148 9.5-14.175-9.598 4.745zm94.032 5.079-1.544 7.346h-22.603l1.496-7.043-3.305 2.234 1.295-7.065 3.548-2.409 3.548-16.7h8.376l-2.142 10.06 8.404-5.704-1.549 7.293-8.404 5.683-1.343 6.305zm-16.542 1.877 1.983-9.313 8.404-5.683.422-1.988-8.408 5.707 2.632-12.36h-4.536l-3.387 15.952-3.523 2.392-.347 1.893 3.456-2.337-1.981 9.328h18.76l.754-3.59h-14.229zm-21.687-69.803c.33.178.635.374.906.593 1.39 1.117 2.18 2.97 2.134 5.303-.06 3.005-.792 5.117-2.706 6.542a9.176 9.176 0 0 1 -.656.446c-1.478.913-2.677 1.235-4.543 1.495a24.45 24.45 0 0 1 -1.414.14v5.569h-4.62v-5.433h-.993v5.432h-4.62v-5.432h-6.402l.902-5.625h2.51c.494 0 .587-.025.686-.125.058-.058.1-.215.1-.453v-14.063c0-.706-.016-.762-.262-1.056-.124-.147-.636-.257-1.242-.257h-2.56v-5.072h6.268v-5.449h4.62v5.448h.992v-5.448h4.62v5.57c2.29.225 3.94.802 5.394 1.948 1.036.817 1.663 1.948 1.96 3.263.195.858.227 1.645.177 2.372-.067.98-.432 2.28-.98 3.106-.204.308-.484.61-.828.914.19.083.375.173.557.271zm-.642 1.38a7.227 7.227 0 0 0 -1.152-.49 6.026 6.026 0 0 0 -.512-.147l-1.84-.415 1.63-1.009a8.708 8.708 0 0 0 .948-.696c.302-.256.536-.5.67-.702.378-.57.669-1.605.719-2.326.04-.58.014-1.215-.14-1.893-.223-.984-.675-1.8-1.415-2.383-1.342-1.058-2.912-1.55-5.307-1.71l-.673-.044v-5.466h-1.751v5.447h-3.862v-5.447h-1.75v5.447h-6.268v1.987h1.125c1.014 0 1.807.17 2.307.768.512.61.632 1.03.632 2.088v14.064c0 .623-.148 1.17-.554 1.579-.423.427-.842.542-1.667.542h-1.301l-.408 2.54h6.133v5.432h1.751v-5.432h3.862v5.432h1.751v-5.479l.676-.042c.83-.052 1.571-.117 1.989-.175 1.691-.236 2.741-.518 4.013-1.304.189-.117.374-.242.554-.376 1.462-1.089 2.037-2.747 2.087-5.307.038-1.847-.55-3.224-1.558-4.035-.199-.16-.43-.31-.689-.449zm-11.25-2.958a34.115 34.115 0 0 0 1.905-.015c1.12-.046 2.227-.325 2.974-.764.698-.41 1.018-.99.996-1.891-.022-.915-.601-1.67-1.605-1.999-1.043-.34-1.695-.422-2.988-.443h-.04c-.395-.005-.819.007-1.242.03zm-.78-6.572.16-.013a22.554 22.554 0 0 1 1.877-.07h.046c1.415.023 2.191.12 3.385.51 1.574.517 2.582 1.83 2.621 3.435.036 1.485-.577 2.601-1.743 3.285-.96.564-2.28.897-3.606.951a25.5 25.5 0 0 1 -.668.018 46.65 46.65 0 0 1 -2.03-.018l-.697-.022v-8.014zm8.084 14.253c0-1.012-.44-1.567-1.24-1.994-.645-.345-1.929-.688-3.225-.78a19.156 19.156 0 0 0 -.855-.038 35.518 35.518 0 0 0 -1.984.012v5.785c.545.004 1.113 0 1.65-.015.418-.012.791-.03 1.109-.055 1.304-.103 2.676-.456 3.31-.829.866-.51 1.235-1.018 1.235-2.086zm-.546 3.44c-.842.494-2.403.896-3.895 1.013-.342.027-.737.046-1.174.058a51.891 51.891 0 0 1 -2.421.007l-.703-.015v-8.779l.681-.037.163-.008a37.265 37.265 0 0 1 2.608-.033c.326.008.632.022.916.042 1.477.104 2.945.496 3.769.937 1.237.659 2.037 1.668 2.037 3.375 0 1.72-.7 2.686-1.981 3.44zm30.235 82.629c-16.982 0-30.748-13.767-30.748-30.749s13.766-30.748 30.748-30.748 30.749 13.767 30.749 30.75c0 16.981-13.767 30.748-30.749 30.748zm0-1.878c15.945 0 28.871-12.926 28.871-28.87 0-15.946-12.926-28.872-28.87-28.872-15.946 0-28.872 12.926-28.872 28.871s12.926 28.87 28.871 28.87zm-71.355 1.878c-16.982 0-30.749-13.767-30.749-30.749s13.767-30.748 30.749-30.748 30.748 13.767 30.748 30.75c0 16.981-13.766 30.748-30.748 30.748zm0-1.878c15.945 0 28.87-12.926 28.87-28.87 0-15.946-12.925-28.872-28.87-28.872s-28.871 12.926-28.871 28.871 12.926 28.87 28.87 28.87zm36.147-57.742c-16.982 0-30.749-13.766-30.749-30.748s13.767-30.749 30.749-30.749 30.748 13.767 30.748 30.749-13.766 30.748-30.748 30.748zm0-1.878c15.945 0 28.87-12.925 28.87-28.87s-12.924-28.871-28.869-28.871-28.871 12.926-28.871 28.87c0 15.946 12.926 28.871 28.87 28.871z" fill="url(#a)" transform="translate(35.68 .942)"/><g fill="#fff"><path d="m18.076 40.844c0-14.738-2.867-17.604-17.604-17.604 14.737 0 17.604-2.865 17.604-17.604 0 14.739 2.866 17.604 17.605 17.604-14.74 0-17.605 2.866-17.605 17.604zm176.746 34.739c0-10.612-2.064-12.675-12.675-12.675 10.61 0 12.675-2.063 12.675-12.675 0 10.612 2.063 12.675 12.675 12.675-10.612 0-12.675 2.063-12.675 12.675zm-187.073 24.411c0-6.092-1.185-7.276-7.277-7.276 6.092 0 7.277-1.184 7.277-7.276 0 6.092 1.184 7.276 7.276 7.276-6.092 0-7.276 1.184-7.276 7.276z"/><path d="m172.289 23.475a4.225 4.225 0 1 1 0-8.45 4.225 4.225 0 0 1 0 8.45zm0-1.408a2.817 2.817 0 1 0 0-5.634 2.817 2.817 0 0 0 0 5.634z" fill-rule="nonzero"/></g></g></svg>