<svg width="100" height="60" viewBox="0 0 100 60" fill="none" xmlns="http://www.w3.org/2000/svg">
<rect width="100" height="60" fill="black" fill-opacity="0"/>
<rect width="60" height="60" fill="black" fill-opacity="0" transform="translate(20)"/>
<path fill-rule="evenodd" clip-rule="evenodd" d="M50 60C66.5685 60 80 46.5685 80 30C80 13.4315 66.5685 0 50 0C33.4315 0 20 13.4315 20 30C20 46.5685 33.4315 60 50 60Z" fill="#ECF7F7"/>
<rect width="38.5714" height="33.4286" fill="black" fill-opacity="0" transform="translate(31.1428 13.7148)"/>
<rect width="37.4509" height="31.9187" fill="black" fill-opacity="0" transform="translate(31.9858 14.5391)"/>
<path d="M65.7799 43.0296C65.9292 43.0273 66.0713 42.9653 66.1744 42.8573C66.2776 42.7494 66.333 42.6045 66.3284 42.4553L65.8999 26.6924C65.8452 26.5011 65.6703 26.3691 65.4713 26.3691C65.2723 26.3691 65.0974 26.5011 65.0427 26.6924L64.5713 42.1467C64.5713 42.6201 64.955 43.0039 65.4284 43.0039H65.7456L65.7799 43.0296Z" fill="#544C64"/>
<path d="M35.4283 43.0284H35.7626C36.0671 43.01 36.3001 42.7502 36.2855 42.4455L35.8826 26.6827C35.828 26.4913 35.6531 26.3594 35.454 26.3594C35.255 26.3594 35.0801 26.4913 35.0255 26.6827L34.5712 42.1455C34.5642 42.3773 34.6515 42.602 34.813 42.7683C34.9745 42.9347 35.1965 43.0285 35.4283 43.0284Z" fill="#544C64"/>
<path d="M59.3169 40.2859C59.4647 40.2792 59.6038 40.214 59.7035 40.1047C59.8032 39.9953 59.8553 39.8508 59.8483 39.703L59.4283 31.1144C59.4283 30.8635 59.2249 30.6602 58.974 30.6602C58.7231 30.6602 58.5197 30.8635 58.5197 31.1144L58.134 39.4287C58.134 39.9021 58.5178 40.2859 58.9912 40.2859H59.3169Z" fill="#544C64"/>
<path d="M42.2855 40.2343H42.6369C42.938 40.2071 43.1624 39.9446 43.1426 39.6429L42.7226 31.0715C42.7226 30.8206 42.5192 30.6172 42.2683 30.6172C42.0174 30.6172 41.814 30.8206 41.814 31.0715L41.4283 39.3343C41.4166 39.569 41.5017 39.7982 41.6637 39.9683C41.8257 40.1385 42.0505 40.2346 42.2855 40.2343Z" fill="#544C64"/>
<path d="M41.9428 43.0286H59.3599C59.6439 43.0286 59.8742 42.7983 59.8742 42.5143C59.8742 42.2303 59.6439 42 59.3599 42H41.9428C41.6587 42 41.4285 42.2303 41.4285 42.5143C41.4285 42.7983 41.6587 43.0286 41.9428 43.0286Z" fill="#544C64"/>
<path d="M65.8227 45.4297H35.0856C34.8015 45.4297 34.5713 45.6599 34.5713 45.944C34.5713 46.228 34.8015 46.4583 35.0856 46.4583H65.8227C66.1067 46.4583 66.337 46.228 66.337 45.944C66.337 45.6599 66.1067 45.4297 65.8227 45.4297Z" fill="#544C64"/>
<path d="M68.6341 21.6177L51.8427 14.7606C51.1173 14.4652 50.3052 14.4652 49.5798 14.7606L32.7884 21.6177C32.2189 21.8487 31.8925 22.4504 32.0094 23.0538C32.1264 23.6571 32.6539 24.0933 33.2684 24.0949H45.4313C45.9919 21.79 48.0563 20.1676 50.4284 20.1676C52.8005 20.1676 54.8649 21.79 55.4256 24.0949H68.1541C68.7687 24.0933 69.2962 23.6571 69.4131 23.0538C69.53 22.4504 69.2036 21.8487 68.6341 21.6177Z" fill="#544C64"/>
<path d="M50.4884 31.8112C54.0924 31.8112 57.0141 28.8895 57.0141 25.2855C57.0141 21.6814 54.0924 18.7598 50.4884 18.7598C46.8843 18.7598 43.9626 21.6814 43.9626 25.2855C43.9626 28.8895 46.8843 31.8112 50.4884 31.8112Z" fill="white" stroke="#544C64"/>
<path d="M51.8598 25.303C51.6513 25.1462 51.4273 25.0112 51.1913 24.9001L50.5227 24.5572C50.3352 24.4585 50.1621 24.3345 50.0084 24.1887C49.8719 24.0564 49.7972 23.8729 49.8027 23.683C49.7772 23.4611 49.8491 23.2392 49.9998 23.0744C50.185 22.9224 50.4207 22.8459 50.6598 22.8601C50.8792 22.8541 51.0968 22.9011 51.2941 22.9972C51.497 23.106 51.6844 23.2415 51.8513 23.4001L52.4598 22.7144C52.2675 22.5172 52.0516 22.3445 51.817 22.2001C51.5556 22.0438 51.2629 21.9472 50.9598 21.9172V20.8887H50.1027V21.943C49.6747 22.0056 49.2828 22.2183 48.997 22.543C48.7159 22.8782 48.5693 23.3058 48.5855 23.743C48.5754 24.0257 48.6468 24.3054 48.7913 24.5487C48.9265 24.7648 49.1009 24.9537 49.3055 25.1058C49.5148 25.2615 49.7387 25.3964 49.9741 25.5087C50.2141 25.623 50.437 25.7401 50.6427 25.8601C50.8337 25.9708 51.007 26.1095 51.157 26.2715C51.2961 26.4264 51.3698 26.6292 51.3627 26.8372C51.3759 27.0798 51.2855 27.3166 51.1141 27.4887C50.9039 27.6576 50.6373 27.7404 50.3684 27.7201C50.096 27.7225 49.8266 27.6639 49.5798 27.5487C49.3198 27.4233 49.0752 27.268 48.8513 27.0858L48.3198 27.883C48.5701 28.1117 48.8608 28.2919 49.177 28.4144C49.4805 28.5425 49.801 28.6262 50.1284 28.663V29.6915H50.9855V28.6201C51.4442 28.5549 51.8641 28.3267 52.1684 27.9772C52.4452 27.6268 52.5881 27.1892 52.5713 26.743C52.5819 26.4439 52.5108 26.1475 52.3655 25.8858C52.2363 25.6606 52.0645 25.4627 51.8598 25.303Z" fill="#41AEB5"/>
</svg>
