<svg width="30" height="30" viewBox="0 0 30 30" fill="none" xmlns="http://www.w3.org/2000/svg">
<path d="M1891.27 1192.24C1763.03 1706.52 1242.09 2019.51 727.681 1891.26C213.487 1763.04 -99.5368 1242.13 28.7569 727.87C156.931 213.526 677.876 -99.4911 1192.13 28.7276C1706.51 156.946 2019.5 677.921 1891.27 1192.24Z" transform="scale(0.015625)" fill="url(#paint0_linear)"/>
<path d="M916.118 488.725C935.23 360.986 837.959 292.317 704.955 246.508L748.1 73.4693L642.758 47.2195L600.754 215.698C573.061 208.798 544.618 202.288 516.355 195.838L558.66 26.2497L453.378 -1.1444e-05L410.204 172.978C387.281 167.758 364.779 162.598 342.937 157.168L343.057 156.628L197.781 120.359L169.758 232.858C169.758 232.858 247.916 250.767 246.266 251.877C288.931 262.527 296.642 290.757 295.351 313.137L246.206 510.265C249.147 511.015 252.957 512.095 257.157 513.775C253.647 512.905 249.897 511.945 246.026 511.015L177.139 787.162C171.918 800.122 158.687 819.562 128.864 812.182C129.914 813.712 52.2956 793.072 52.2956 793.072L7.59969e-06 913.641L137.085 947.81C162.587 954.2 187.58 960.89 212.183 967.19L168.588 1142.21L273.809 1168.46L316.984 995.3C345.727 1003.1 373.63 1010.3 400.933 1017.08L357.908 1189.43L463.249 1215.68L506.844 1040.99C686.473 1074.98 821.547 1061.27 878.404 898.821C924.218 768.022 876.123 692.573 781.613 643.374C850.441 627.504 902.286 582.234 916.118 488.725ZM675.432 826.192C642.878 956.99 422.625 886.281 351.217 868.551L409.064 636.684C480.471 654.503 709.456 689.783 675.432 826.192ZM708.016 486.835C678.312 605.814 494.993 545.365 435.526 530.545L487.972 320.247C547.438 335.067 738.949 362.726 708.016 486.835Z" transform="translate(7.29688 5.22656) scale(0.015625)" fill="white"/>
<defs>
<linearGradient id="paint0_linear" x2="1" gradientUnits="userSpaceOnUse" gradientTransform="translate(960) scale(1920) rotate(90)">
<stop stop-color="#F9AA4B"/>
<stop offset="1" stop-color="#F7931A"/>
</linearGradient>
</defs>
</svg>
