<svg width="60" height="60" viewBox="0 0 60 60" fill="none" xmlns="http://www.w3.org/2000/svg">
<path fill-rule="evenodd" clip-rule="evenodd" d="M30 60C46.5685 60 60 46.5685 60 30C60 13.4315 46.5685 0 30 0C13.4315 0 0 13.4315 0 30C0 46.5685 13.4315 60 30 60Z" fill="#ECF7F7"/>
<path d="M1.20857 16.6604C1.35786 16.6582 1.50001 16.5962 1.60314 16.4882C1.70627 16.3802 1.76175 16.2354 1.75714 16.0861L1.32857 0.32329C1.27391 0.131933 1.09901 0 0.9 0C0.700989 0 0.526091 0.131933 0.471429 0.32329L0 15.7776C0 16.251 0.383756 16.6347 0.857143 16.6347H1.17429L1.20857 16.6604Z" transform="translate(44.5714 26.3682)" fill="#41AEB5"/>
<path d="M0.857529 16.669H1.19181C1.49626 16.6506 1.72931 16.3908 1.71467 16.0861L1.31181 0.32329C1.25715 0.131933 1.08225 0 0.883244 0C0.684232 0 0.509335 0.131933 0.454672 0.32329L0.000386285 15.7861C-0.00656938 16.0179 0.0806564 16.2426 0.242162 16.4089C0.403667 16.5753 0.625674 16.6691 0.857529 16.669Z" transform="translate(14.571 26.3594)" fill="#41AEB5"/>
<path d="M1.18286 9.62571C1.33068 9.61905 1.46977 9.55386 1.56947 9.44451C1.66916 9.33517 1.72127 9.19066 1.71429 9.04286L1.29429 0.454286C1.29429 0.203391 1.0909 0 0.84 0C0.589105 0 0.385714 0.203391 0.385714 0.454286L0 8.76857C0 9.24196 0.383756 9.62571 0.857143 9.62571H1.18286Z" transform="translate(38.1343 30.6592)" fill="#41AEB5"/>
<path d="M0.858216 9.61714H1.20964C1.51077 9.58988 1.7352 9.32742 1.71536 9.02571L1.29536 0.454286C1.29536 0.203391 1.09197 0 0.841073 0C0.590178 0 0.386788 0.203391 0.386788 0.454286L0.00107334 8.71714C-0.0106745 8.9518 0.0744181 9.18099 0.236454 9.35113C0.398491 9.52127 0.623264 9.61744 0.858216 9.61714Z" transform="translate(21.4275 30.6172)" fill="#41AEB5"/>
<path d="M0.514286 1.02857H17.9314C18.2155 1.02857 18.4457 0.798318 18.4457 0.514286C18.4457 0.230254 18.2155 0 17.9314 0H0.514286C0.230254 0 0 0.230254 0 0.514286C0 0.798318 0.230254 1.02857 0.514286 1.02857Z" transform="translate(21.4286 42)" fill="#41AEB5"/>
<path d="M31.2514 0H0.514286C0.230254 0 0 0.230254 0 0.514286C0 0.798318 0.230254 1.02857 0.514286 1.02857H31.2514C31.5355 1.02857 31.7657 0.798318 31.7657 0.514286C31.7657 0.230254 31.5355 0 31.2514 0Z" transform="translate(14.5714 45.4287)" fill="#41AEB5"/>
<path d="M36.6483 7.07868L19.8569 0.221535C19.1315 -0.0738449 18.3194 -0.0738449 17.594 0.221535L0.80257 7.07868C0.23309 7.30967 -0.0933031 7.91137 0.0236038 8.5147C0.140511 9.11802 0.668027 9.55426 1.28257 9.55582H13.4454C14.0061 7.25093 16.0705 5.62851 18.4426 5.62851C20.8147 5.62851 22.8791 7.25093 23.4397 9.55582H36.1683C36.7828 9.55426 37.3103 9.11802 37.4273 8.5147C37.5442 7.91137 37.2178 7.30967 36.6483 7.07868Z" transform="translate(11.986 14.5381)" fill="#41AEB5"/>
<path d="M6.02571 12.5514C9.62977 12.5514 12.5514 9.62977 12.5514 6.02571C12.5514 2.42166 9.62977 -0.5 6.02571 -0.5C2.42166 -0.5 -0.5 2.42166 -0.5 6.02571C-0.5 9.62977 2.42166 12.5514 6.02571 12.5514Z" transform="translate(24.4628 19.2598)" fill="white" stroke="#41AEB5"/>
<path d="M3.54 4.41429C3.33147 4.25754 3.10745 4.12255 2.87143 4.01143L2.20286 3.66857C2.01536 3.56984 1.84232 3.44582 1.68857 3.3C1.55207 3.16777 1.47742 2.98426 1.48286 2.79429C1.4574 2.57246 1.52931 2.35048 1.68 2.18571C1.86518 2.03374 2.10087 1.95722 2.34 1.97143C2.55939 1.9654 2.77698 2.01245 2.97429 2.10857C3.1772 2.21731 3.36458 2.35281 3.53143 2.51143L4.14 1.82571C3.94766 1.62852 3.73175 1.45579 3.49714 1.31143C3.23577 1.15511 2.94307 1.05852 2.64 1.02857V0H1.78286V1.05429C1.35484 1.11698 0.962994 1.32961 0.677143 1.65429C0.396085 1.98951 0.249472 2.41713 0.265714 2.85429C0.255553 3.13703 0.326966 3.41673 0.471429 3.66C0.606696 3.8761 0.781111 4.06505 0.985714 4.21714C1.19495 4.37284 1.41886 4.50777 1.65429 4.62C1.89429 4.73429 2.11714 4.85143 2.32286 4.97143C2.51386 5.08213 2.68721 5.22081 2.83714 5.38286C2.97623 5.53777 3.04995 5.7405 3.04286 5.94857C3.05605 6.19113 2.96571 6.42789 2.79429 6.6C2.58408 6.76896 2.3175 6.85169 2.04857 6.83143C1.77622 6.83382 1.50678 6.77525 1.26 6.66C0.999929 6.53464 0.755411 6.3793 0.531429 6.19714L0 6.99429C0.250291 7.22304 0.540949 7.40325 0.857143 7.52571C1.16069 7.65386 1.48113 7.73758 1.80857 7.77429V8.80286H2.66571V7.73143C3.12442 7.66619 3.54431 7.43799 3.84857 7.08857C4.1254 6.73816 4.26823 6.30054 4.25143 5.85429C4.26207 5.55518 4.19095 5.25884 4.04571 4.99714C3.91646 4.77196 3.74471 4.57401 3.54 4.41429Z" transform="translate(28.3199 20.8887)" fill="#41AEB5"/>
<path fill-rule="evenodd" clip-rule="evenodd" d="M30 60C46.5685 60 60 46.5685 60 30C60 13.4315 46.5685 0 30 0C13.4315 0 0 13.4315 0 30C0 46.5685 13.4315 60 30 60Z" fill="#ECF7F7"/>
<path fill-rule="evenodd" clip-rule="evenodd" d="M34.435 2.86538L39.1493 20.4367C39.4167 21.424 39.2804 22.4777 38.7709 23.3654C38.2614 24.2521 37.4201 24.9015 36.432 25.1681L34.392 25.7169L34.6664 26.7707C34.7841 27.2111 34.7218 27.6798 34.4936 28.0734C34.265 28.4669 33.8896 28.7541 33.4494 28.8712H33.2179L16.3749 30.5851L9.56925 32.3595C8.58219 32.6408 7.52311 32.5109 6.63321 31.9992C5.74357 31.4875 5.09904 30.6369 4.84635 29.6427L0.132238 12.0539C-0.418543 9.99722 0.801428 7.88296 2.85782 7.3312L29.7121 0.131008C30.7011 -0.13364 31.7543 0.00600844 32.6403 0.51968C33.526 1.03238 34.1718 1.87613 34.435 2.86538ZM33.2179 27.9787C33.4374 27.922 33.6256 27.7804 33.7409 27.5851C33.8615 27.3771 33.8893 27.1281 33.818 26.8986L33.5607 25.9562L21.6122 29.2736L33.0978 27.9787H33.2179Z" transform="translate(11.1394 13.7119)" fill="#544C64"/>
<path d="M26.5869 0.0289153L0.272628 7.07463C0.0634395 7.17774 -0.0437077 7.41432 0.0167735 7.63956C0.0772547 7.8648 0.288499 8.01589 0.5212 8.00034L26.8269 0.988915C27.0141 0.961144 27.1693 0.829515 27.2272 0.649373C27.2852 0.46923 27.2358 0.271816 27.0999 0.140132C26.964 0.00844884 26.7651 -0.0346661 26.5869 0.0289153Z" transform="translate(18.2246 29.6543)" fill="white"/>
<path d="M13.9183 0.00998584L0.272628 3.66999C0.0634395 3.77309 -0.0437077 4.00968 0.0167735 4.23492C0.0772547 4.46016 0.288499 4.61125 0.5212 4.5957L14.1926 0.944272C14.4295 0.852586 14.5566 0.594716 14.485 0.35102C14.4135 0.107323 14.1672 -0.0409149 13.9183 0.00998584Z" transform="translate(19.2274 36.7695)" fill="white"/>
<path d="M11.6515 4.14082C10.7344 1.07607 7.51003 -0.6684 4.44294 0.240818C1.33729 0.990238 -0.57842 4.10902 0.15723 7.21796C0.874401 9.69604 3.16654 11.3835 5.7458 11.3322C6.29284 11.3318 6.83747 11.2598 7.3658 11.118C10.4715 10.3685 12.3872 7.24976 11.6515 4.14082Z" transform="translate(32.0543 17.5967)" fill="white"/>
<path fill-rule="evenodd" clip-rule="evenodd" d="M4.69859 6.04286C4.45259 6.43477 4.08544 6.73571 3.65287 6.9L3.90144 7.84286L3.0443 8.06571L2.79573 7.15714C2.45429 7.20128 2.10859 7.20128 1.76716 7.15714C1.43256 7.1297 1.10505 7.04565 0.798586 6.90857L1.15001 6.05143C1.42701 6.15407 1.71445 6.22593 2.00716 6.26571C2.29401 6.30308 2.58545 6.28268 2.8643 6.20571C3.14148 6.15386 3.39255 6.00867 3.57573 5.79429C3.70626 5.60665 3.74116 5.36864 3.67001 5.15143C3.6237 4.96115 3.49919 4.79928 3.32716 4.70571C3.13039 4.60173 2.91965 4.52667 2.70144 4.48286C2.45573 4.43143 2.19859 4.38857 1.93001 4.35429C1.66535 4.32092 1.40428 4.26354 1.15001 4.18286C0.910088 4.10775 0.686265 3.98857 0.490015 3.83143C0.281591 3.66895 0.131262 3.44346 0.0614434 3.18857C-0.054516 2.79479 -0.00499365 2.37075 0.198586 2.01429C0.423328 1.62743 0.769981 1.32599 1.1843 1.15714L0.970015 0.222857L1.82716 0L2.06716 0.934286C2.37558 0.873083 2.69302 0.873083 3.00144 0.934286C3.27177 0.997207 3.53362 1.09216 3.78144 1.21714L3.32716 1.99714C3.11671 1.90101 2.89495 1.83189 2.66716 1.79143C2.43754 1.7593 2.2037 1.77684 1.98144 1.84286C1.74042 1.89355 1.52322 2.02327 1.3643 2.21143C1.23575 2.38687 1.20058 2.61388 1.27001 2.82C1.32183 2.98603 1.4441 3.12085 1.6043 3.18857C1.80088 3.27816 2.00836 3.34156 2.22144 3.37714L2.9843 3.49714C3.24947 3.53202 3.51067 3.59229 3.7643 3.67714C4.01933 3.7795 4.25002 3.93427 4.44144 4.13143C4.64702 4.3183 4.79057 4.56354 4.85287 4.83429C4.96348 5.24168 4.90799 5.67631 4.69859 6.04286Z" transform="translate(35.5786 19.251)" fill="#41AEB5"/>
</svg>
