<svg width="88" height="88" viewBox="0 0 88 88" fill="none" xmlns="http://www.w3.org/2000/svg">
<circle cx="44" cy="44" r="44" fill="#B3DFE1"/>
<rect x="25.667" y="12.2227" width="37.0159" height="64.7778" rx="5" fill="white"/>
<path d="M29.7148 17.2715C29.7148 16.7192 30.1626 16.2715 30.7148 16.2715H57.6335C58.1858 16.2715 58.6335 16.7192 58.6335 17.2715V67.1683H29.7148V17.2715Z" fill="#86CBD0"/>
<path d="M44.5103 68.9072C45.9744 68.9072 47.1592 70.092 47.1592 71.5561C47.1592 73.0203 45.9744 74.2051 44.5103 74.2051C43.0461 74.2051 41.8613 73.0203 41.8613 71.5561C41.8613 70.092 43.0461 68.9072 44.5103 68.9072Z" fill="#41AEB5"/>
<circle cx="59.1111" cy="42.1111" r="17.1111" fill="#41AEB5"/>
<path d="M54.6104 36.9023H59.9426C61.1943 36.9023 62.1331 37.1767 62.7589 37.7255C63.4223 38.3125 63.754 39.059 63.754 39.9651C63.754 40.8967 63.4161 41.6241 62.7402 42.1473C63.8542 42.7344 64.4112 43.6149 64.4112 44.789C64.4112 45.2356 64.3423 45.6376 64.2047 45.9949C64.0795 46.3522 63.923 46.6458 63.7353 46.8755C63.56 47.0924 63.3222 47.2838 63.0218 47.4497C62.7214 47.6156 62.446 47.7369 62.1957 47.8134C61.9578 47.89 61.6574 47.9474 61.2944 47.9857C60.9315 48.024 60.6561 48.0495 60.4683 48.0623C60.2931 48.0623 60.0615 48.0623 59.7736 48.0623H54.6104V46.4926H56.1312V38.472H54.6104V36.9023ZM59.9051 38.472H57.7646V41.4773H59.8112C60.0866 41.4773 60.3181 41.4646 60.5059 41.4391C60.6936 41.4135 60.9252 41.3561 61.2006 41.2668C61.4885 41.1774 61.7075 41.0179 61.8577 40.7882C62.0079 40.5458 62.083 40.2395 62.083 39.8694C62.083 38.9378 61.357 38.472 59.9051 38.472ZM59.661 43.047H57.7646V46.4926H59.7361C60.2368 46.4926 60.6436 46.4799 60.9565 46.4543C61.2694 46.416 61.5698 46.3459 61.8577 46.2438C62.1581 46.1417 62.3772 45.9822 62.5149 45.7652C62.6525 45.5355 62.7214 45.242 62.7214 44.8847C62.7214 43.6596 61.7013 43.047 59.661 43.047Z" fill="white"/>
<path d="M58.4551 35.3198C58.4551 34.8951 58.7994 34.5508 59.2241 34.5508C59.6489 34.5508 59.9932 34.8951 59.9932 35.3198V36.903H58.4551V35.3198Z" fill="white"/>
<path d="M59.9922 49.4634C59.9922 49.8881 59.6479 50.2324 59.2231 50.2324C58.7984 50.2324 58.4541 49.8881 58.4541 49.4634L58.4541 47.8802L59.9922 47.8802L59.9922 49.4634Z" fill="white"/>
<path fill-rule="evenodd" clip-rule="evenodd" d="M62.6159 57.3354C62.4426 57.5433 62.1336 57.5714 61.9257 57.3981L58.9854 54.9479C58.7775 54.7747 58.7494 54.4657 58.9227 54.2577L61.3729 51.3175C61.5462 51.1096 61.8552 51.0815 62.0631 51.2547C62.271 51.428 62.2991 51.737 62.1258 51.9449L60.3842 54.0349C66.6485 53.4952 71.5502 48.3273 71.5502 42.0472C71.5502 38.6372 70.1068 35.5576 67.7836 33.3661C67.5868 33.1804 67.5777 32.8702 67.7634 32.6734C67.9491 32.4765 68.2593 32.4674 68.4562 32.6532C70.9654 35.0202 72.5303 38.3536 72.5303 42.0472C72.5303 48.8167 67.2801 54.3676 60.5803 55.0012L62.5531 56.6452C62.761 56.8185 62.7891 57.1275 62.6159 57.3354Z" fill="white"/>
<circle cx="66.6506" cy="31.5393" r="0.490042" transform="rotate(-180 66.6506 31.5393)" fill="white"/>
<circle cx="64.9025" cy="30.633" r="0.490042" transform="rotate(-180 64.9025 30.633)" fill="white"/>
<path fill-rule="evenodd" clip-rule="evenodd" d="M56.1927 26.8873C56.366 26.6794 56.675 26.6513 56.8829 26.8245L59.8232 29.2747C60.0311 29.448 60.0592 29.757 59.8859 29.9649L57.4357 32.9052C57.2624 33.1131 56.9534 33.1412 56.7455 32.9679C56.5376 32.7947 56.5095 32.4856 56.6828 32.2777L58.4244 30.1878C52.1601 30.7274 47.2584 35.8954 47.2584 42.1755C47.2584 45.5855 48.7018 48.6651 51.025 50.8566C51.2218 51.0423 51.2309 51.3524 51.0452 51.5493C50.8595 51.7462 50.5493 51.7552 50.3524 51.5695C47.8432 49.2025 46.2783 45.8691 46.2783 42.1755C46.2783 35.406 51.5285 29.855 58.2283 29.2214L56.2555 27.5775C56.0476 27.4042 56.0195 27.0952 56.1927 26.8873Z" fill="white"/>
<circle cx="52.158" cy="52.6834" r="0.490042" fill="white"/>
<circle cx="53.909" cy="53.5897" r="0.490042" fill="white"/>
</svg>
