<svg width="88" height="88" viewBox="0 0 88 88" fill="none" xmlns="http://www.w3.org/2000/svg">
<circle cx="44" cy="44" r="44" fill="#B3DFE1"/>
<path d="M18 43L24 39L30 43V65H18V43Z" fill="white"/>
<path d="M36 30L42 26L48 30V65H36V30Z" fill="white"/>
<path d="M54 19L60 15L66 19V66H54V19Z" fill="white"/>
<circle cx="44.1111" cy="64.1111" r="17.1111" fill="#41AEB5"/>
<path d="M39.6104 58.9023H44.9426C46.1943 58.9023 47.1331 59.1767 47.7589 59.7255C48.4223 60.3125 48.754 61.059 48.754 61.9651C48.754 62.8967 48.4161 63.6241 47.7402 64.1473C48.8542 64.7344 49.4112 65.6149 49.4112 66.789C49.4112 67.2356 49.3423 67.6376 49.2047 67.9949C49.0795 68.3522 48.923 68.6458 48.7353 68.8755C48.56 69.0924 48.3222 69.2838 48.0218 69.4497C47.7214 69.6156 47.446 69.7369 47.1957 69.8134C46.9578 69.89 46.6574 69.9474 46.2944 69.9857C45.9315 70.024 45.6561 70.0495 45.4683 70.0623C45.2931 70.0623 45.0615 70.0623 44.7736 70.0623H39.6104V68.4926H41.1312V60.472H39.6104V58.9023ZM44.9051 60.472H42.7646V63.4773H44.8112C45.0866 63.4773 45.3181 63.4646 45.5059 63.4391C45.6936 63.4135 45.9252 63.3561 46.2006 63.2668C46.4885 63.1774 46.7075 63.0179 46.8577 62.7882C47.0079 62.5458 47.083 62.2395 47.083 61.8694C47.083 60.9378 46.357 60.472 44.9051 60.472ZM44.661 65.047H42.7646V68.4926H44.7361C45.2368 68.4926 45.6436 68.4799 45.9565 68.4543C46.2694 68.416 46.5698 68.3459 46.8577 68.2438C47.1581 68.1417 47.3772 67.9822 47.5149 67.7652C47.6525 67.5355 47.7214 67.242 47.7214 66.8847C47.7214 65.6596 46.7013 65.047 44.661 65.047Z" fill="white"/>
<path d="M43.4551 57.3198C43.4551 56.8951 43.7994 56.5508 44.2241 56.5508C44.6489 56.5508 44.9932 56.8951 44.9932 57.3198V58.903H43.4551V57.3198Z" fill="white"/>
<path d="M44.9922 71.4634C44.9922 71.8881 44.6479 72.2324 44.2231 72.2324C43.7984 72.2324 43.4541 71.8881 43.4541 71.4634L43.4541 69.8802L44.9922 69.8802L44.9922 71.4634Z" fill="white"/>
<path fill-rule="evenodd" clip-rule="evenodd" d="M47.6159 79.3354C47.4426 79.5433 47.1336 79.5714 46.9257 79.3981L43.9854 76.9479C43.7775 76.7747 43.7494 76.4657 43.9227 76.2577L46.3729 73.3175C46.5462 73.1096 46.8552 73.0815 47.0631 73.2547C47.271 73.428 47.2991 73.737 47.1258 73.9449L45.3842 76.0349C51.6485 75.4952 56.5502 70.3273 56.5502 64.0472C56.5502 60.6372 55.1068 57.5576 52.7836 55.3661C52.5868 55.1804 52.5777 54.8702 52.7634 54.6734C52.9491 54.4765 53.2593 54.4674 53.4562 54.6532C55.9654 57.0202 57.5303 60.3536 57.5303 64.0472C57.5303 70.8167 52.2801 76.3676 45.5803 77.0012L47.5531 78.6452C47.761 78.8185 47.7891 79.1275 47.6159 79.3354Z" fill="white"/>
<circle cx="51.6506" cy="53.5393" r="0.490042" transform="rotate(-180 51.6506 53.5393)" fill="white"/>
<circle cx="49.9025" cy="52.633" r="0.490042" transform="rotate(-180 49.9025 52.633)" fill="white"/>
<path fill-rule="evenodd" clip-rule="evenodd" d="M41.1927 48.8873C41.366 48.6794 41.675 48.6513 41.8829 48.8245L44.8232 51.2747C45.0311 51.448 45.0592 51.757 44.8859 51.9649L42.4357 54.9052C42.2624 55.1131 41.9534 55.1412 41.7455 54.9679C41.5376 54.7947 41.5095 54.4856 41.6828 54.2777L43.4244 52.1878C37.1601 52.7274 32.2584 57.8954 32.2584 64.1755C32.2584 67.5855 33.7018 70.6651 36.025 72.8566C36.2218 73.0423 36.2309 73.3524 36.0452 73.5493C35.8595 73.7462 35.5493 73.7552 35.3524 73.5695C32.8432 71.2025 31.2783 67.8691 31.2783 64.1755C31.2783 57.406 36.5285 51.855 43.2283 51.2214L41.2555 49.5775C41.0476 49.4042 41.0195 49.0952 41.1927 48.8873Z" fill="white"/>
<circle cx="37.158" cy="74.6834" r="0.490042" fill="white"/>
<circle cx="38.909" cy="75.5897" r="0.490042" fill="white"/>
</svg>
