<svg width="65" height="60" viewBox="0 0 65 60" fill="none" xmlns="http://www.w3.org/2000/svg">
<path fill-rule="evenodd" clip-rule="evenodd" d="M11.5949 0.00599699C11.5396 0.0111906 11.486 0.0250399 11.4325 0.0458143C10.8311 0.180848 10.4061 0.722714 10.4199 1.34421V41.0267L2.27947 32.871C1.96843 32.5456 1.50361 32.4036 1.06471 32.5057C0.0123827 32.6945 -0.36604 34.0136 0.416725 34.7373L10.7845 45.1244L11.7158 46.0177L12.6472 45.1244L23.015 34.7373C23.5282 34.2231 23.5282 33.3852 23.015 32.871C22.5018 32.3569 21.6654 32.3569 21.1522 32.871L13.0118 41.0267V1.34421C13.0395 0.559981 12.3707 -0.0684445 11.5949 0.00599699Z" transform="translate(20.2783)" fill="#544C64"/>
<path fill-rule="evenodd" clip-rule="evenodd" d="M0 0.000239501V44.1458H46.6549V0.000239501H33.6952C32.9729 -0.0136101 32.3785 0.574996 32.3785 1.29864C32.3785 2.02228 32.9729 2.61088 33.6952 2.59703H44.0629V41.549H2.59194V2.59703H12.9597C13.682 2.61088 14.2764 2.02228 14.2764 1.29864C14.2764 0.574996 13.682 -0.0136101 12.9597 0.000239501H0Z" transform="translate(8.66675 14.8555)" fill="#544C64"/>
</svg>
