<svg width="32" height="32" viewBox="0 0 32 32" fill="none" xmlns="http://www.w3.org/2000/svg">
<path d="M31.5147 19.8537C29.4127 28.4618 20.7045 33.6667 12.1463 31.5147C3.53819 29.4127 -1.66675 20.7045 0.485294 12.1463C2.58729 3.53819 11.2955 -1.66675 19.8537 0.485294C28.4618 2.58729 33.6667 11.2955 31.5147 19.8537Z" fill="#AAAADD"/>
<path d="M16.1528 4L15.9922 4.54689V20.4162L16.1528 20.5769L23.5054 16.2226L16.1528 4Z" fill="white"/>
<path d="M16.1525 4L8.7998 16.2226L16.1525 20.5769V12.8744V4Z" fill="white"/>
<path d="M16.153 21.9732L16.0625 22.0837V27.7367L16.153 28.0015L23.5101 17.6211L16.153 21.9732Z" fill="white"/>
<path d="M16.1525 28.0016V21.9732L8.7998 17.6211L16.1525 28.0016Z" fill="white"/>
</svg>
