<svg width="57" height="61" viewBox="0 0 57 61" fill="none" xmlns="http://www.w3.org/2000/svg">
<path d="M1 5C1 2.79086 2.79086 1 5 1H51.5385C53.7476 1 55.5385 2.79086 55.5385 5V31.9231C55.5385 34.1322 53.7476 35.9231 51.5385 35.9231H5C2.79086 35.9231 1 34.1322 1 31.9231V5Z" transform="translate(0 24.0762)" stroke="#544C64" stroke-width="2"/>
<path fill-rule="evenodd" clip-rule="evenodd" d="M10.2624 20.5249C15.9302 20.5249 20.5249 15.9302 20.5249 10.2624C20.5249 4.59465 15.9302 0 10.2624 0C4.59465 0 0 4.59465 0 10.2624C0 15.9302 4.59465 20.5249 10.2624 20.5249Z" transform="translate(18.4614 1)" stroke="#544C64" stroke-width="2"/>
<path fill-rule="evenodd" clip-rule="evenodd" d="M0 1C0 0.447715 0.447715 0 1 0H38.2308C38.7831 0 39.2308 0.447715 39.2308 1V1.30769C39.2308 1.85998 38.7831 2.30769 38.2308 2.30769H1C0.447717 2.30769 0 1.85998 0 1.30769V1Z" transform="translate(9.23071 43.6914)" fill="#544C64"/>
<path fill-rule="evenodd" clip-rule="evenodd" d="M0 1C0 0.447715 0.447715 0 1 0H10.5385C11.0907 0 11.5385 0.447715 11.5385 1V1.30769C11.5385 1.85998 11.0907 2.30769 10.5385 2.30769H1C0.447715 2.30769 0 1.85998 0 1.30769V1Z" transform="translate(9.23071 50.6152)" fill="#544C64"/>
<path fill-rule="evenodd" clip-rule="evenodd" d="M0 1C0 0.447715 0.447715 0 1 0H10.5385C11.0907 0 11.5385 0.447715 11.5385 1V1.30769C11.5385 1.85998 11.0907 2.30769 10.5385 2.30769H1C0.447715 2.30769 0 1.85998 0 1.30769V1Z" transform="translate(36.9231 50.6152)" fill="#544C64"/>
<path fill-rule="evenodd" clip-rule="evenodd" d="M12.6923 25.3846C19.7021 25.3846 25.3846 19.7021 25.3846 12.6923C25.3846 5.68254 19.7021 0 12.6923 0C5.68254 0 0 5.68254 0 12.6923C0 19.7021 5.68254 25.3846 12.6923 25.3846Z" transform="translate(16.1538 9.07617)" fill="#FAFAFA" stroke="#544C64" stroke-width="2"/>
<path fill-rule="evenodd" clip-rule="evenodd" d="M7.03054 5.18961C6.64341 4.82245 6.27011 4.54356 5.91063 4.35292C5.55115 4.16228 5.12255 4.06696 4.62481 4.06696C4.05794 4.06696 3.61551 4.2117 3.29751 4.50119C2.97951 4.79068 2.82051 5.21079 2.82051 5.76153C2.82051 6.18517 2.95877 6.53467 3.23529 6.81004C3.51182 7.08541 3.86092 7.33959 4.28262 7.5726C4.70431 7.8056 5.15711 8.0386 5.64103 8.27161C6.12494 8.50461 6.57774 8.7835 6.99943 9.1083C7.42113 9.43309 7.77023 9.83202 8.04676 10.3051C8.32328 10.7782 8.46154 11.3677 8.46154 12.0738C8.46154 13.0905 8.18502 13.9413 7.63198 14.6262C7.07893 15.3111 6.28394 15.7524 5.24698 15.9501V18.1319H3.58786V16.0137C2.95186 15.9431 2.31241 15.7701 1.66949 15.4947C1.02658 15.2193 0.470088 14.8557 0 14.4038L1.07843 12.7516C1.56235 13.147 2.05316 13.4647 2.5509 13.7048C3.04864 13.9449 3.58094 14.0649 4.14781 14.0649C4.82529 14.0649 5.32994 13.906 5.66176 13.5883C5.99359 13.2706 6.1595 12.8222 6.1595 12.2432C6.1595 11.7772 6.02124 11.3889 5.74472 11.0782C5.4682 10.7676 5.11909 10.4851 4.6974 10.2309C4.2757 9.97676 3.8229 9.73317 3.33899 9.50017C2.85508 9.26716 2.40228 8.9918 1.98058 8.67407C1.55888 8.35633 1.20978 7.97506 0.933258 7.53023C0.656736 7.08541 0.518477 6.53115 0.518477 5.86744C0.518477 4.87894 0.794995 4.05637 1.34804 3.39973C1.90108 2.74308 2.64768 2.33003 3.58786 2.16057V0H5.24698V2.11821C5.91064 2.20294 6.48096 2.3971 6.95796 2.70072C7.43496 3.00433 7.86702 3.36089 8.25415 3.77041L7.03054 5.18961Z" transform="translate(24.6157 12.7012)" fill="#544C64"/>
</svg>
