<svg width="104" height="56" viewBox="0 0 104 56" fill="none" xmlns="http://www.w3.org/2000/svg">
<rect width="104" height="56" fill="white"/>
<path d="M90.5383 22.054C89.5189 21.3535 87.9759 21.0002 85.9535 21.0002H80.6569L78.6878 31.7226H71.7491L72.1951 29.2899H76.3748L76.8701 26.5576L72.6927 26.5636L73.1399 24.1418H77.4453L78.0181 21.0008H69.2749L67.4056 31.1717H64.197L66.079 21.0003H61.5085L59.6392 31.1712H56.5136L58.3974 21.0003H53.8293L51.8578 31.7227H44.8693L45.311 29.29H49.5076L50.0035 26.5732L45.8109 26.569L46.2557 24.1423H50.6094L51.1786 21H23.9331L22.3823 29.4967L19.294 21H14.5521L12 34.8667H16.5286L18.0733 26.1356L21.0701 34.8667H37.3001L39.2734 24.141H41.8117L39.8384 34.8667H82.5427L83.7809 28.0962L85.7836 34.8667H90.3146L88.2391 29.3344L88.714 29.2319C89.7598 29.007 90.5755 28.5241 91.1435 27.8C91.7109 27.0693 92 26.1312 92 25.0043C92 23.6924 91.5215 22.7272 90.537 22.0532L90.5383 22.054ZM33.3593 31.7226H26.4273L26.875 29.2899H31.2231L31.716 26.5499H27.4098L27.8245 24.1425H34.7465L33.358 31.7226L33.3593 31.7226ZM86.8049 27.0519C86.3493 27.3714 85.6887 27.527 84.7854 27.527H83.8897L84.5768 23.8058H85.2355C85.9857 23.8058 86.5326 23.9264 86.9101 24.1723C87.2046 24.3653 87.555 24.7469 87.555 25.4686C87.554 26.3416 87.1463 26.8106 86.8037 27.0518L86.8049 27.0519Z" fill="#83BA3B"/>
</svg>
