<svg width="36" height="30" viewBox="0 0 36 30" fill="none" xmlns="http://www.w3.org/2000/svg">
<path d="M33 0L33.6253 0.177524L33.9717 -1.04261L32.7789 -0.611255L33 0ZM25.6184 26L25.2395 26.5282L25.9911 27.0673L26.2437 26.1775L25.6184 26ZM14.3289 17.9016L13.8736 17.4378L13.7234 17.5853L13.6881 17.7928L14.3289 17.9016ZM13.0263 25.5738L12.4055 25.7663L12.7211 26.7842L13.4817 26.0376L13.0263 25.5738ZM0 11.9344L-0.22106 11.3232L-1.86052 11.9161L-0.23307 12.5412L0 11.9344ZM27.5988 4.87547L28.0541 5.33933L27.5988 4.87547ZM27.3502 4.5647L26.9978 4.01856L27.3502 4.5647ZM32.3747 -0.177524L24.9931 25.8225L26.2437 26.1775L33.6253 0.177524L32.3747 -0.177524ZM25.9973 25.4718L14.7078 17.3735L13.9501 18.4298L25.2395 26.5282L25.9973 25.4718ZM13.6881 17.7928L12.3855 25.465L13.6671 25.6826L14.9698 18.0104L13.6881 17.7928ZM13.6472 25.3813L10.6077 15.578L9.366 15.963L12.4055 25.7663L13.6472 25.3813ZM10.2199 15.1637L0.23307 11.3276L-0.23307 12.5412L9.75377 16.3773L10.2199 15.1637ZM0.22106 12.5457L33.2211 0.611255L32.7789 -0.611255L-0.22106 11.3232L0.22106 12.5457ZM13.4817 26.0376L18.258 21.3491L17.3473 20.4214L12.571 25.1099L13.4817 26.0376ZM14.7843 18.3655L28.0541 5.33933L27.1435 4.41161L13.8736 17.4378L14.7843 18.3655ZM26.9978 4.01856L9.63438 15.2244L10.3393 16.3166L27.7027 5.11084L26.9978 4.01856ZM28.0541 5.33933C28.7847 4.62218 27.858 3.46341 26.9978 4.01856L27.7027 5.11084C27.6127 5.16893 27.4895 5.19701 27.3634 5.17021C27.2484 5.14573 27.1624 5.08271 27.1073 5.01381C27.0522 4.94491 27.0096 4.84718 27.011 4.72954C27.0125 4.60067 27.067 4.48666 27.1435 4.41161L28.0541 5.33933Z" transform="translate(2 2)" fill="#544C64"/>
</svg>
