<svg width="34" height="34" viewBox="0 0 34 34" fill="none" xmlns="http://www.w3.org/2000/svg">
<path fill-rule="evenodd" clip-rule="evenodd" d="M0.65 0C1.00899 0 1.3 0.291015 1.3 0.65V3.65C1.3 4.00899 1.00899 4.3 0.65 4.3C0.291015 4.3 0 4.00899 0 3.65V0.65C0 0.291015 0.291015 0 0.65 0Z" transform="translate(15.8501 13.6172)" fill="#544C64"/>
<path fill-rule="evenodd" clip-rule="evenodd" d="M0.65 0C1.00899 0 1.3 0.291015 1.3 0.65V5.77069C1.3 6.12967 1.00899 6.42069 0.65 6.42069C0.291015 6.42069 0 6.12967 0 5.77069V0.65C0 0.291015 0.291015 0 0.65 0Z" transform="translate(19.2637 12.6172)" fill="#544C64"/>
<path fill-rule="evenodd" clip-rule="evenodd" d="M0.65 0C1.00899 0 1.3 0.291015 1.3 0.65V3.65C1.3 4.00899 1.00899 4.3 0.65 4.3C0.291015 4.3 0 4.00899 0 3.65V0.65C0 0.291015 0.291015 0 0.65 0Z" transform="translate(22.6777 13.6172)" fill="#544C64"/>
<circle cx="2.27586" cy="2.27586" r="2.27586" transform="translate(12.5173 29.1992)" fill="#544C64"/>
<circle cx="2.27586" cy="2.27586" r="2.27586" transform="translate(22.7585 29.1992)" fill="#544C64"/>
<path fill-rule="evenodd" clip-rule="evenodd" d="M0 1.5H4.2334C5.35059 1.5 6.29858 2.32031 6.45972 3.42578L9.69385 25.6016C9.96265 27.4434 11.5425 28.8105 13.4045 28.8105H29.0173V27.3105H13.4045C12.2874 27.3105 11.3394 26.4902 11.1782 25.3848L10.8479 23.1191H27.1724C28.885 23.1191 30.3799 21.959 30.8052 20.3008L33.9666 7.96484H8.6377L7.94409 3.20898C7.67529 1.36719 6.09546 0 4.2334 0H0V1.5ZM8.85645 9.46484L10.6292 21.6191H27.1724C28.2 21.6191 29.0969 20.9238 29.3521 19.9277L32.0337 9.46484H8.85645Z" fill="#544C64"/>
</svg>
