<svg width="88" height="88" viewBox="0 0 88 88" fill="none" xmlns="http://www.w3.org/2000/svg">
<path d="M64.8777 80.326C85.0618 68.6727 91.9773 42.8635 80.3241 22.6794C68.6708 2.49537 42.8615 -4.4202 22.6775 7.23307C2.49342 18.8863 -4.42215 44.6956 7.23112 64.8797C18.8844 85.0637 44.6936 91.9793 64.8777 80.326Z" fill="#B3DFE1"/>
<path fill-rule="evenodd" clip-rule="evenodd" d="M33.6575 59.9279H33.6489L33.6489 65.5472C31.7428 65.0648 29.7416 64.9626 27.7284 65.0821L26.3042 65.1666C24.98 65.2452 23.0027 66.561 23.1096 68.3622L23.1499 69.0401C23.1847 69.6274 23.6274 70.1192 24.2279 70.226L27.2956 70.7756C28.7036 71.0282 30.0191 71.6145 31.1306 72.4859C31.7221 72.9496 33.0308 74.4601 34.126 75.7722C34.4942 76.5528 35.0595 77.2373 35.7647 77.7735C35.8435 77.8717 35.887 77.9261 35.887 77.9261L35.9123 77.8821C36.9076 78.5907 38.1599 79.0125 39.5211 79.0125L51.2693 79.0125C54.5074 79.0125 57.1377 76.614 57.1377 73.6489L57.1377 59.6995C57.1377 57.7994 55.8226 56.2579 54.2016 56.2579C52.5806 56.2579 51.2655 57.7994 51.2655 59.6995V58.2314C51.2655 56.3314 49.9504 54.7898 48.3294 54.7898C46.7084 54.7898 45.3933 56.3314 45.3933 58.2314V56.7634C45.3933 54.8633 44.0782 53.3218 42.4572 53.3218C40.837 53.3218 39.5223 54.8619 39.5211 56.7608V46.9601C39.5211 45.204 38.206 43.7793 36.585 43.7793C34.964 43.7793 33.6489 45.204 33.6489 46.9601V59.6832C33.6489 59.7655 33.6518 59.8471 33.6575 59.9279ZM39.5211 59.6856V59.9279L39.5125 59.9279C39.5181 59.8479 39.521 59.7671 39.5211 59.6856Z" fill="white"/>
<path d="M35.4131 87.2041C35.0148 87.2039 34.6922 86.8808 34.6924 86.4825L34.6971 78.2911C34.6974 77.8928 35.0204 77.5701 35.4187 77.5703L55.8714 77.5822C56.2697 77.5824 56.5924 77.9055 56.5921 78.3038L56.5874 86.4952C56.5871 86.8935 56.2641 87.2162 55.8658 87.216L35.4131 87.2041Z" fill="#41AEB5"/>
<path d="M52.2696 80.0722C53.4798 80.0722 54.4591 81.0515 54.4591 82.2617C54.4591 83.4719 53.4798 84.4512 52.2696 84.4512C51.0594 84.4512 50.0801 83.4719 50.0801 82.2617C50.0801 81.0515 51.0594 80.0722 52.2696 80.0722Z" fill="white"/>
<rect x="23.9658" y="13.6328" width="39.6232" height="25.8404" rx="12.9202" fill="#68BEC4"/>
<ellipse cx="50.6686" cy="26.5511" rx="12.9206" ry="12.9202" fill="#41AEB5"/>
<path fill-rule="evenodd" clip-rule="evenodd" d="M44.9078 26.4383C45.3108 26.0252 45.9641 26.0252 46.3703 26.4415L50.2554 30.4238C50.6601 30.8387 50.6643 31.5069 50.2585 31.9228C49.8556 32.3359 49.2022 32.3359 48.7961 31.9196L44.911 27.9373C44.5063 27.5225 44.5021 26.8542 44.9078 26.4383Z" fill="white"/>
<path fill-rule="evenodd" clip-rule="evenodd" d="M49.0353 31.682C48.6324 31.2689 48.6346 30.5969 49.0309 30.1907L56.8226 22.2041C57.2231 21.7936 57.8717 21.7928 58.2775 22.2087C58.6804 22.6217 58.6782 23.2937 58.2819 23.6999L50.4902 31.6865C50.0897 32.0971 49.4411 32.0979 49.0353 31.682Z" fill="white"/>
</svg>
